<svg width="800" height="800" viewBox="0 0 800 800" fill="none" xmlns="http://www.w3.org/2000/svg">
<g clip-path="url(#clip0_234_277)">
<path fill-rule="evenodd" clip-rule="evenodd" d="M400 750C206.7 750 50 593.25 50 400C50 206.75 206.7 50 400 50C593.3 50 750 206.75 750 400C750 593.25 593.3 750 400 750ZM400 0C179.075 0 0 179 0 400C0 621 179.075 800 400 800C620.925 800 800 621 800 400C800 179 620.925 0 400 0ZM563.375 378L421.975 236.499C412.2 226.749 396.375 226.749 386.625 236.499C376.85 246.499 376.85 262.25 386.625 272L489.65 375H225C211.175 375 200 386.25 200 400C200 413.75 211.175 425 225 425H489.65L386.625 528C376.85 537.75 376.85 553.751 386.625 563.501C396.375 573.251 412.2 573.251 421.975 563.501L563.375 422C569.375 416 571.25 407.75 569.875 400C571.25 392.25 569.375 384 563.375 378Z" fill="white"/>
</g>
<defs>
<clipPath id="clip0_234_277">
<rect width="800" height="800" fill="white"/>
</clipPath>
</defs>
</svg>
