<svg class="svg-title" width="100%" height="50%" viewBox="0 0 3947 562" fill="none" xmlns="http://www.w3.org/2000/svg">
<path d="M73.8125 473.469C24.8542 422.427 0.375 360.188 0.375 286.75C0.375 250.292 6.88542 216.177 19.9062 184.406C32.9271 152.115 50.6354 123.99 73.0312 100.031C95.9479 75.5521 122.51 56.5417 152.719 43C182.927 28.9375 215.219 21.9062 249.594 21.9062C283.969 21.9062 316.26 28.9375 346.469 43C376.677 56.5417 403.24 75.5521 426.156 100.031C449.073 123.99 467.042 152.115 480.062 184.406C493.083 216.177 499.594 250.292 499.594 286.75C499.594 360.188 475.115 422.427 426.156 473.469C392.823 508.885 355.062 532.323 312.875 543.781C270.688 555.76 228.5 555.76 186.312 543.781C144.646 532.323 107.146 508.885 73.8125 473.469ZM262.094 517.219C295.427 517.219 324.594 506.281 349.594 484.406C374.594 463.052 392.823 436.49 404.281 404.719C416.26 372.427 422.25 338.052 422.25 301.594C422.25 260.448 415.479 221.125 401.938 183.625C388.396 146.646 367.302 115.917 338.656 91.4375C310.01 66.9583 276.417 54.7188 237.875 54.7188C205.062 54.7188 176.677 64.875 152.719 85.1875C128.76 104.979 110.271 131.281 97.25 164.094C84.2292 196.385 77.7188 231.542 77.7188 269.562C77.7188 310.708 84.4896 350.031 98.0312 387.531C111.573 424.51 132.667 455.5 161.312 480.5C189.958 504.979 223.552 517.219 262.094 517.219ZM821.469 549.25C817.302 549.25 815.219 545.083 815.219 536.75V496.906C815.219 494.302 814.698 493 813.656 493C779.281 529.979 745.167 548.469 711.312 548.469C686.833 548.469 667.302 541.438 652.719 527.375C638.656 512.792 628.5 494.562 622.25 472.688C616.521 450.292 613.656 427.115 613.656 403.156V304.719C613.656 284.927 610.01 270.865 602.719 262.531C597.51 256.281 591.26 252.115 583.969 250.031C577.198 247.948 570.948 246.906 565.219 246.906C560.01 246.385 557.406 245.604 557.406 244.562C557.406 232.062 558.969 225.552 562.094 225.031C589.698 220.865 611.833 217.219 628.5 214.094C645.688 210.448 655.583 208.365 658.188 207.844L673.812 203.938C675.896 203.417 677.198 205.5 677.719 210.188C678.24 214.875 678.24 218.26 677.719 220.344C674.594 245.344 673.031 264.615 673.031 278.156V383.625C673.031 423.729 679.021 453.417 691 472.688C702.979 491.438 722.51 500.812 749.594 500.812C760.01 500.812 770.167 497.948 780.062 492.219C790.479 486.49 798.812 479.719 805.062 471.906C811.833 463.573 815.219 456.542 815.219 450.812V304.719C815.219 284.927 811.573 270.865 804.281 262.531C799.073 256.281 792.823 252.115 785.531 250.031C778.76 247.948 772.51 246.646 766.781 246.125C761.573 245.604 758.969 245.083 758.969 244.562C758.969 232.062 760.531 225.552 763.656 225.031C791.26 220.865 811.833 217.479 825.375 214.875C839.438 212.271 850.635 209.927 858.969 207.844L875.375 203.938C877.458 203.417 878.76 205.5 879.281 210.188C879.802 214.875 879.802 218.26 879.281 220.344C876.156 245.344 874.594 264.094 874.594 276.594V432.844C874.594 456.281 876.417 476.073 880.062 492.219C881.625 497.427 885.792 500.812 892.562 502.375C899.333 503.417 907.146 504.458 916 505.5L926.156 506.281C927.719 506.802 928.5 509.667 928.5 514.875C928.5 516.438 927.719 519.042 926.156 522.688C925.115 525.812 923.812 527.375 922.25 527.375C906.625 528.417 889.438 531.281 870.688 535.969C851.938 540.135 837.875 544.042 828.5 547.688L821.469 549.25ZM967.562 545.344C965.479 543.26 964.438 538.833 964.438 532.062C964.438 525.812 965.479 522.688 967.562 522.688C971.729 522.688 977.458 521.906 984.75 520.344C992.042 518.781 998.812 516.698 1005.06 514.094C1011.31 511.49 1014.7 509.146 1015.22 507.062C1017.3 499.771 1018.6 491.438 1019.12 482.062C1020.17 472.688 1020.69 462.792 1020.69 452.375V304.719C1020.69 284.927 1017.04 270.865 1009.75 262.531C1004.54 256.281 998.292 252.115 991 250.031C984.229 247.948 977.979 246.906 972.25 246.906C967.042 246.385 964.438 245.604 964.438 244.562C964.438 232.062 966 225.552 969.125 225.031C1025.9 216.177 1058.71 210.448 1067.56 207.844L1080.84 203.938C1082.93 203.417 1084.23 205.5 1084.75 210.188C1085.27 214.875 1085.27 218.26 1084.75 220.344L1080.06 259.406C1089.44 245.344 1102.2 232.323 1118.34 220.344C1135.01 207.844 1151.42 201.594 1167.56 201.594C1197.77 201.594 1218.08 209.146 1228.5 224.25C1228.5 242.479 1225.64 255.76 1219.91 264.094C1214.18 272.427 1207.15 276.594 1198.81 276.594C1189.44 276.594 1180.84 272.167 1173.03 263.312C1165.22 254.458 1154.54 250.031 1141 250.031C1130.58 250.031 1120.69 253.677 1111.31 260.969C1101.94 267.74 1094.39 276.594 1088.66 287.531C1083.45 297.948 1080.84 308.885 1080.84 320.344V437.531C1080.84 452.635 1081.36 465.917 1082.41 477.375C1083.45 488.833 1085.01 498.729 1087.09 507.062C1088.14 509.146 1091.78 511.49 1098.03 514.094C1104.28 516.698 1111.05 518.781 1118.34 520.344C1126.16 521.906 1131.62 522.688 1134.75 522.688C1136.31 522.688 1137.35 525.812 1137.88 532.062C1138.4 538.312 1138.14 542.74 1137.09 545.344L1052.72 541.438L967.562 545.344ZM1568.34 548.469C1542.3 548.469 1520.43 539.875 1502.72 522.688C1485.53 505.5 1476.94 481.021 1476.94 449.25V250.812H1431.62C1429.02 250.812 1427.72 245.344 1427.72 234.406C1427.72 231.281 1427.98 229.458 1428.5 228.938C1444.12 221.646 1460.53 207.844 1477.72 187.531C1489.7 173.469 1498.55 161.229 1504.28 150.812C1510.53 140.396 1513.66 134.146 1513.66 132.062C1529.28 132.062 1537.09 133.365 1537.09 135.969V213.312L1598.81 214.094H1642.56C1646.73 214.094 1648.81 216.438 1648.81 221.125C1648.81 231.021 1646.21 240.917 1641 250.812H1537.09V442.219C1537.09 463.052 1542.3 479.719 1552.72 492.219C1563.66 504.719 1577.72 510.969 1594.91 510.969C1611.05 510.969 1627.2 506.021 1643.34 496.125C1644.91 495.083 1647.25 497.427 1650.38 503.156C1653.5 508.365 1654.8 511.229 1654.28 511.75C1646.47 520.083 1634.49 528.417 1618.34 536.75C1602.2 544.562 1585.53 548.469 1568.34 548.469ZM1846.47 547.688C1817.82 547.688 1791.52 540.135 1767.56 525.031C1743.6 509.927 1724.33 489.875 1709.75 464.875C1695.69 439.354 1688.66 410.969 1688.66 379.719C1688.66 343.26 1695.43 311.75 1708.97 285.188C1722.51 258.625 1741 238.312 1764.44 224.25C1787.88 209.667 1814.18 202.375 1843.34 202.375C1867.3 202.375 1888.4 207.062 1906.62 216.438C1924.85 225.292 1938.92 236.75 1948.81 250.812C1958.19 265.396 1964.96 280.24 1969.12 295.344C1973.81 309.927 1976.16 324.51 1976.16 339.094C1976.16 349.51 1974.59 356.021 1971.47 358.625C1968.34 360.708 1962.35 361.75 1953.5 361.75H1756.62C1752.46 361.75 1750.38 363.052 1750.38 365.656C1750.38 387.531 1754.8 408.625 1763.66 428.938C1772.51 448.729 1785.53 465.135 1802.72 478.156C1819.91 491.177 1841 497.688 1866 497.688C1887.88 497.688 1906.1 494.562 1920.69 488.312C1935.79 481.542 1946.73 475.552 1953.5 470.344L1958.97 466.438C1962.09 466.438 1963.66 469.823 1963.66 476.594C1963.66 480.24 1962.09 484.927 1958.97 490.656C1948.55 505.24 1933.19 518.521 1912.88 530.5C1892.56 541.958 1870.43 547.688 1846.47 547.688ZM1756.62 328.938H1908.97C1911.57 328.938 1912.88 326.333 1912.88 321.125C1912.88 309.667 1909.75 297.167 1903.5 283.625C1897.77 269.562 1888.92 257.323 1876.94 246.906C1864.96 236.49 1849.85 231.281 1831.62 231.281C1814.96 231.281 1800.64 237.01 1788.66 248.469C1776.68 259.406 1767.56 272.167 1761.31 286.75C1755.06 300.812 1751.94 313.052 1751.94 323.469C1751.94 327.115 1753.5 328.938 1756.62 328.938ZM2108.97 548.469C2085.01 548.469 2065.22 542.219 2049.59 529.719C2033.97 516.698 2026.16 497.427 2026.16 471.906C2026.16 440.656 2046.47 414.615 2087.09 393.781C2104.8 384.927 2122.25 377.896 2139.44 372.688C2157.15 367.479 2174.85 361.49 2192.56 354.719C2197.25 353.156 2199.59 349.25 2199.59 343V284.406C2199.59 267.74 2194.39 254.979 2183.97 246.125C2173.55 236.75 2161.05 232.062 2146.47 232.062C2130.84 232.062 2117.82 237.531 2107.41 248.469C2096.99 258.885 2091.78 272.688 2091.78 289.875C2091.78 308.104 2081.1 317.219 2059.75 317.219C2044.65 317.219 2034.49 312.271 2029.28 302.375C2029.28 291.438 2033.71 280.24 2042.56 268.781C2051.94 256.802 2063.92 245.865 2078.5 235.969C2093.08 226.073 2108.97 218 2126.16 211.75C2143.86 205.5 2161.31 202.375 2178.5 202.375C2207.15 202.375 2227.72 209.406 2240.22 223.469C2252.72 237.01 2258.97 259.146 2258.97 289.875V470.344C2258.97 481.281 2261.83 490.396 2267.56 497.688C2273.29 504.979 2281.1 508.625 2291 508.625C2297.77 508.625 2306.89 504.979 2318.34 497.688C2320.43 497.688 2321.47 499.771 2321.47 503.938C2321.47 510.708 2320.17 516.177 2317.56 520.344C2296.21 538.573 2277.98 547.688 2262.88 547.688C2250.9 547.688 2239.44 542.74 2228.5 532.844C2217.56 522.948 2210.01 512.531 2205.84 501.594C2203.24 503.677 2199.85 506.542 2195.69 510.188C2192.04 513.312 2188.92 515.917 2186.31 518C2175.38 526.333 2163.4 533.625 2150.38 539.875C2137.88 545.604 2124.07 548.469 2108.97 548.469ZM2138.66 503.938C2153.24 503.938 2167.04 499.771 2180.06 491.438C2193.08 483.104 2199.59 474.25 2199.59 464.875V384.406C2186.05 389.615 2173.03 394.302 2160.53 398.469C2148.55 402.635 2138.92 406.021 2131.62 408.625C2122.25 412.271 2113.14 418.781 2104.28 428.156C2095.95 437.531 2091.78 448.208 2091.78 460.188C2091.78 475.812 2096.47 487.01 2105.84 493.781C2115.74 500.552 2126.68 503.938 2138.66 503.938ZM2512.88 547.688C2484.23 547.688 2457.93 540.135 2433.97 525.031C2410.01 509.927 2390.74 489.875 2376.16 464.875C2362.09 439.354 2355.06 410.969 2355.06 379.719C2355.06 347.427 2360.79 318 2372.25 291.438C2384.23 264.354 2401.42 242.74 2423.81 226.594C2446.73 210.448 2474.33 202.375 2506.62 202.375C2563.92 202.375 2603.5 215.656 2625.38 242.219C2625.38 277.115 2615.74 294.562 2596.47 294.562C2587.61 294.562 2580.84 292.74 2576.16 289.094C2571.47 284.927 2565.48 277.635 2558.19 267.219C2542.04 243.26 2522.77 231.281 2500.38 231.281C2479.02 231.281 2459.49 241.438 2441.78 261.75C2424.59 282.062 2416 312.271 2416 352.375C2416 394.042 2426.16 428.677 2446.47 456.281C2467.3 483.885 2495.95 497.688 2532.41 497.688C2554.28 497.688 2572.51 494.562 2587.09 488.312C2602.2 481.542 2613.14 475.552 2619.91 470.344L2625.38 466.438C2628.5 466.438 2630.06 469.823 2630.06 476.594C2630.06 480.24 2628.5 484.927 2625.38 490.656C2614.96 505.24 2599.59 518.521 2579.28 530.5C2558.97 541.958 2536.83 547.688 2512.88 547.688ZM2659.75 545.344C2657.67 543.26 2656.62 538.833 2656.62 532.062C2656.62 525.812 2657.67 522.688 2659.75 522.688C2663.92 522.688 2669.65 521.906 2676.94 520.344C2684.23 518.781 2691 516.698 2697.25 514.094C2703.5 511.49 2706.89 509.146 2707.41 507.062C2711.05 493 2712.88 475.031 2712.88 453.156V114.094C2712.88 96.3854 2711.31 79.7188 2708.19 64.0938C2706.1 55.7604 2692.82 51.5938 2668.34 51.5938H2661.31C2658.19 51.5938 2656.62 48.7292 2656.62 43C2656.62 34.6667 2658.19 30.5 2661.31 30.5C2687.88 27.8958 2710.27 23.7292 2728.5 18C2746.73 11.75 2759.23 6.80208 2766 3.15625L2769.91 0.8125H2771.47C2773.55 0.8125 2775.64 2.375 2777.72 5.5C2779.8 8.10417 2781.1 10.7083 2781.62 13.3125C2775.9 30.5 2773.03 53.1562 2773.03 81.2812V252.375C2773.03 254.458 2773.55 255.5 2774.59 255.5C2775.11 255.5 2775.9 254.979 2776.94 253.938C2784.75 245.604 2794.65 237.531 2806.62 229.719C2819.12 221.385 2832.41 214.615 2846.47 209.406C2860.53 203.677 2873.81 200.812 2886.31 200.812C2921.21 200.812 2946.21 213.312 2961.31 238.312C2976.42 263.312 2983.97 301.854 2983.97 353.938V438.312C2983.97 452.896 2984.49 465.917 2985.53 477.375C2986.57 488.833 2988.14 498.729 2990.22 507.062C2991.26 509.146 2994.91 511.49 3001.16 514.094C3007.41 516.698 3014.18 518.781 3021.47 520.344C3028.76 521.906 3033.97 522.688 3037.09 522.688C3038.66 522.688 3039.7 525.812 3040.22 532.062C3040.74 538.312 3040.48 542.74 3039.44 545.344L2955.84 541.438L2873.81 545.344C2871.73 543.26 2870.69 538.833 2870.69 532.062C2870.69 525.812 2871.73 522.688 2873.81 522.688C2877.98 522.688 2883.45 521.906 2890.22 520.344C2896.99 518.781 2903.24 516.698 2908.97 514.094C2914.7 511.49 2917.82 509.146 2918.34 507.062C2920.43 499.771 2921.73 491.438 2922.25 482.062C2923.29 472.688 2923.81 462.792 2923.81 452.375V369.562C2923.81 337.271 2920.95 312.531 2915.22 295.344C2909.49 277.635 2900.64 265.396 2888.66 258.625C2876.68 251.854 2861.31 248.469 2842.56 248.469C2832.15 248.469 2821.47 251.594 2810.53 257.844C2800.11 263.573 2791.26 270.344 2783.97 278.156C2776.68 285.969 2773.03 293 2773.03 299.25V437.531C2773.03 452.635 2773.55 465.917 2774.59 477.375C2775.64 488.833 2777.2 498.729 2779.28 507.062C2780.32 509.146 2783.97 511.49 2790.22 514.094C2796.47 516.698 2803.24 518.781 2810.53 520.344C2817.82 521.906 2823.03 522.688 2826.16 522.688C2827.72 522.688 2828.76 525.812 2829.28 532.062C2829.8 538.312 2829.54 542.74 2828.5 545.344L2744.91 541.438L2659.75 545.344ZM3243.34 547.688C3214.7 547.688 3188.4 540.135 3164.44 525.031C3140.48 509.927 3121.21 489.875 3106.62 464.875C3092.56 439.354 3085.53 410.969 3085.53 379.719C3085.53 343.26 3092.3 311.75 3105.84 285.188C3119.39 258.625 3137.88 238.312 3161.31 224.25C3184.75 209.667 3211.05 202.375 3240.22 202.375C3264.18 202.375 3285.27 207.062 3303.5 216.438C3321.73 225.292 3335.79 236.75 3345.69 250.812C3355.06 265.396 3361.83 280.24 3366 295.344C3370.69 309.927 3373.03 324.51 3373.03 339.094C3373.03 349.51 3371.47 356.021 3368.34 358.625C3365.22 360.708 3359.23 361.75 3350.38 361.75H3153.5C3149.33 361.75 3147.25 363.052 3147.25 365.656C3147.25 387.531 3151.68 408.625 3160.53 428.938C3169.39 448.729 3182.41 465.135 3199.59 478.156C3216.78 491.177 3237.88 497.688 3262.88 497.688C3284.75 497.688 3302.98 494.562 3317.56 488.312C3332.67 481.542 3343.6 475.552 3350.38 470.344L3355.84 466.438C3358.97 466.438 3360.53 469.823 3360.53 476.594C3360.53 480.24 3358.97 484.927 3355.84 490.656C3345.43 505.24 3330.06 518.521 3309.75 530.5C3289.44 541.958 3267.3 547.688 3243.34 547.688ZM3153.5 328.938H3305.84C3308.45 328.938 3309.75 326.333 3309.75 321.125C3309.75 309.667 3306.62 297.167 3300.38 283.625C3294.65 269.562 3285.79 257.323 3273.81 246.906C3261.83 236.49 3246.73 231.281 3228.5 231.281C3211.83 231.281 3197.51 237.01 3185.53 248.469C3173.55 259.406 3164.44 272.167 3158.19 286.75C3151.94 300.812 3148.81 313.052 3148.81 323.469C3148.81 327.115 3150.38 328.938 3153.5 328.938ZM3421.47 545.344C3419.39 543.26 3418.34 538.833 3418.34 532.062C3418.34 525.812 3419.39 522.688 3421.47 522.688C3425.64 522.688 3431.36 521.906 3438.66 520.344C3445.95 518.781 3452.72 516.698 3458.97 514.094C3465.22 511.49 3468.6 509.146 3469.12 507.062C3471.21 499.771 3472.51 491.438 3473.03 482.062C3474.07 472.688 3474.59 462.792 3474.59 452.375V304.719C3474.59 284.927 3470.95 270.865 3463.66 262.531C3458.45 256.281 3452.2 252.115 3444.91 250.031C3438.14 247.948 3431.89 246.906 3426.16 246.906C3420.95 246.385 3418.34 245.604 3418.34 244.562C3418.34 232.062 3419.91 225.552 3423.03 225.031C3479.8 216.177 3512.61 210.448 3521.47 207.844L3534.75 203.938C3536.83 203.417 3538.14 205.5 3538.66 210.188C3539.18 214.875 3539.18 218.26 3538.66 220.344L3533.97 259.406C3543.34 245.344 3556.1 232.323 3572.25 220.344C3588.92 207.844 3605.32 201.594 3621.47 201.594C3651.68 201.594 3671.99 209.146 3682.41 224.25C3682.41 242.479 3679.54 255.76 3673.81 264.094C3668.08 272.427 3661.05 276.594 3652.72 276.594C3643.34 276.594 3634.75 272.167 3626.94 263.312C3619.12 254.458 3608.45 250.031 3594.91 250.031C3584.49 250.031 3574.59 253.677 3565.22 260.969C3555.84 267.74 3548.29 276.594 3542.56 287.531C3537.35 297.948 3534.75 308.885 3534.75 320.344V437.531C3534.75 452.635 3535.27 465.917 3536.31 477.375C3537.35 488.833 3538.92 498.729 3541 507.062C3542.04 509.146 3545.69 511.49 3551.94 514.094C3558.19 516.698 3564.96 518.781 3572.25 520.344C3580.06 521.906 3585.53 522.688 3588.66 522.688C3590.22 522.688 3591.26 525.812 3591.78 532.062C3592.3 538.312 3592.04 542.74 3591 545.344L3506.62 541.438L3421.47 545.344ZM3826.16 551.594C3810.01 551.594 3795.43 549.771 3782.41 546.125C3769.39 542.479 3753.5 539.354 3734.75 536.75C3732.67 531.021 3730.58 523.208 3728.5 513.312C3726.42 503.417 3724.59 493 3723.03 482.062C3721.99 471.125 3721.47 462.271 3721.47 455.5C3725.64 452.375 3728.76 450.812 3730.84 450.812C3738.66 450.812 3742.82 452.375 3743.34 455.5C3745.43 465.917 3750.64 476.333 3758.97 486.75C3767.3 497.167 3777.46 506.021 3789.44 513.312C3801.42 520.083 3813.66 523.469 3826.16 523.469C3842.82 523.469 3856.36 519.042 3866.78 510.188C3877.72 500.812 3883.19 487.531 3883.19 470.344C3883.19 452.115 3876.16 437.01 3862.09 425.031C3851.16 416.177 3841.78 409.927 3833.97 406.281C3826.68 402.115 3819.39 398.469 3812.09 395.344C3805.32 391.698 3796.73 386.75 3786.31 380.5C3745.69 357.062 3725.38 329.198 3725.38 296.906C3725.38 278.156 3730.58 261.75 3741 247.688C3751.42 233.104 3765.22 221.906 3782.41 214.094C3800.11 205.76 3818.86 201.594 3838.66 201.594C3844.39 201.594 3850.9 202.115 3858.19 203.156C3865.48 203.677 3873.55 204.458 3882.41 205.5C3891.26 207.062 3898.55 208.365 3904.28 209.406C3910.01 210.448 3914.7 211.229 3918.34 211.75C3924.07 235.708 3927.2 262.271 3927.72 291.438C3927.72 294.042 3924.33 295.344 3917.56 295.344C3910.27 295.344 3906.36 293.521 3905.84 289.875C3903.24 275.292 3895.69 261.49 3883.19 248.469C3871.21 235.448 3857.41 228.938 3841.78 228.938C3804.28 228.938 3785.53 244.302 3785.53 275.031C3785.53 282.844 3786.31 289.875 3787.88 296.125C3789.96 301.854 3794.39 307.323 3801.16 312.531C3817.3 325.031 3836.31 337.531 3858.19 350.031C3880.58 362.531 3899.07 374.25 3913.66 385.188C3935.53 401.854 3946.47 421.385 3946.47 443.781C3946.47 464.094 3941 482.583 3930.06 499.25C3919.12 515.396 3904.54 528.156 3886.31 537.531C3868.08 546.906 3848.03 551.594 3826.16 551.594Z" fill="#A2A8B5"/>
</svg>
