<svg class="svg-title" width="100%" height="50%" viewBox="0 0 3328 724" fill="none" xmlns="http://www.w3.org/2000/svg">
<line x1="166.989" y1="5" x2="166.989" y2="719.045" stroke="#A2A8B5" stroke-width="9"/>
<line x1="323.296" y1="5" x2="323.296" y2="719.045" stroke="#A2A8B5" stroke-width="9"/>
<line x1="479.605" y1="5" x2="479.605" y2="719.045" stroke="#A2A8B5" stroke-width="9"/>
<line x1="635.912" y1="5" x2="635.912" y2="719.045" stroke="#A2A8B5" stroke-width="9"/>
<line x1="792.221" y1="5" x2="792.221" y2="719.045" stroke="#A2A8B5" stroke-width="9"/>
<line x1="948.53" y1="5" x2="948.53" y2="719.045" stroke="#A2A8B5" stroke-width="9"/>
<line x1="1104.84" y1="5" x2="1104.84" y2="719.045" stroke="#A2A8B5" stroke-width="9"/>
<line x1="1261.15" y1="5" x2="1261.15" y2="719.045" stroke="#A2A8B5" stroke-width="9"/>
<line x1="1417.45" y1="5" x2="1417.45" y2="719.045" stroke="#A2A8B5" stroke-width="9"/>
<line x1="1573.76" y1="5" x2="1573.76" y2="719.045" stroke="#A2A8B5" stroke-width="9"/>
<line x1="1730.07" y1="5" x2="1730.07" y2="719.045" stroke="#A2A8B5" stroke-width="9"/>
<line x1="1886.38" y1="5" x2="1886.38" y2="719.045" stroke="#A2A8B5" stroke-width="9"/>
<line x1="2042.69" y1="5" x2="2042.69" y2="719.045" stroke="#A2A8B5" stroke-width="9"/>
<line x1="2199" y1="5" x2="2199" y2="719.045" stroke="#A2A8B5" stroke-width="9"/>
<line x1="2355.3" y1="5" x2="2355.3" y2="719.045" stroke="#A2A8B5" stroke-width="9"/>
<line x1="2511.61" y1="5" x2="2511.61" y2="719.045" stroke="#A2A8B5" stroke-width="9"/>
<line x1="2667.92" y1="5" x2="2667.92" y2="719.045" stroke="#A2A8B5" stroke-width="9"/>
<line x1="2824.23" y1="5" x2="2824.23" y2="719.045" stroke="#A2A8B5" stroke-width="9"/>
<line x1="2980.54" y1="5" x2="2980.54" y2="719.045" stroke="#A2A8B5" stroke-width="9"/>
<line x1="3136.85" y1="5" x2="3136.85" y2="719.045" stroke="#A2A8B5" stroke-width="9"/>
<path d="M136.44 5H228.805V470.925C228.805 472.582 227.461 473.925 225.805 473.925H139.44C137.784 473.925 136.44 472.582 136.44 470.925V5Z" fill="#A2A8B5"/>
<path d="M1219.94 5H1312.31V470.925C1312.31 472.582 1310.96 473.925 1309.31 473.925H1222.94C1221.28 473.925 1219.94 472.582 1219.94 470.925V5Z" fill="#A2A8B5"/>
<path d="M1383.03 6.14307H1475.39V472.068C1475.39 473.725 1474.05 475.068 1472.39 475.068H1386.03C1384.37 475.068 1383.03 473.725 1383.03 472.068V6.14307Z" fill="#A2A8B5"/>
<path d="M2314.1 5H2406.47V470.925C2406.47 472.582 2405.12 473.925 2403.47 473.925H2317.1C2315.44 473.925 2314.1 472.582 2314.1 470.925V5Z" fill="#A2A8B5"/>
<path d="M2942.89 5H3035.25V470.925C3035.25 472.582 3033.91 473.925 3032.25 473.925H2945.89C2944.23 473.925 2942.89 472.582 2942.89 470.925V5Z" fill="#A2A8B5"/>
<path d="M1852.28 5H1944.64V470.925C1944.64 472.582 1943.3 473.925 1941.64 473.925H1855.28C1853.62 473.925 1852.28 472.582 1852.28 470.925V5Z" fill="#A2A8B5"/>
<path d="M758.122 5H850.486V470.925C850.486 472.582 849.143 473.925 847.486 473.925H761.122C759.465 473.925 758.122 472.582 758.122 470.925V5Z" fill="#A2A8B5"/>
<path d="M2783.02 5H2875.39V470.925C2875.39 472.582 2874.05 473.925 2872.39 473.925H2786.02C2784.37 473.925 2783.02 472.582 2783.02 470.925V5Z" fill="#A2A8B5"/>
<path d="M1699.52 5H1791.89V470.925C1791.89 472.582 1790.54 473.925 1788.89 473.925H1702.52C1700.87 473.925 1699.52 472.582 1699.52 470.925V5Z" fill="#A2A8B5"/>
<path d="M605.366 5H697.73V470.925C697.73 472.582 696.387 473.925 694.73 473.925H608.366C606.709 473.925 605.366 472.582 605.366 470.925V5Z" fill="#A2A8B5"/>
<path d="M278.54 5H370.904V470.925C370.904 472.582 369.561 473.925 367.904 473.925H281.54C279.883 473.925 278.54 472.582 278.54 470.925V5Z" fill="#A2A8B5"/>
<path d="M2473.96 5H2566.32V470.925C2566.32 472.582 2564.98 473.925 2563.32 473.925H2476.96C2475.3 473.925 2473.96 472.582 2473.96 470.925V5Z" fill="#A2A8B5"/>
<path d="M3102.75 5H3195.11V470.925C3195.11 472.582 3193.77 473.925 3192.11 473.925H3105.75C3104.09 473.925 3102.75 472.582 3102.75 470.925V5Z" fill="#A2A8B5"/>
<path d="M2005.04 5H2097.4V470.925C2097.4 472.582 2096.06 473.925 2094.4 473.925H2008.04C2006.38 473.925 2005.04 472.582 2005.04 470.925V5Z" fill="#A2A8B5"/>
<path d="M907.325 5H999.689V470.925C999.689 472.582 998.346 473.925 996.689 473.925H910.325C908.668 473.925 907.325 472.582 907.325 470.925V5Z" fill="#A2A8B5"/>
<path d="M5 8C5 6.34314 6.34315 5 8 5H3320C3321.66 5 3323 6.34315 3323 8V719.045H5V8Z" stroke="#A2A8B5" stroke-width="9"/>
</svg>
