<svg class="svg-title" width="100%" height="50%" viewBox="0 0 1553 525" fill="none" xmlns="http://www.w3.org/2000/svg">
<path d="M3.375 518.344C1.8125 516.781 1.03125 512.094 1.03125 504.281C1.03125 497.51 1.8125 494.125 3.375 494.125C8.58333 494.125 14.8333 493.344 22.125 491.781C29.9375 490.219 37.2292 488.396 44 486.312C51.2917 483.708 55.7188 480.844 57.2812 477.719C60.9271 471.99 62.75 447.51 62.75 404.281V108.969C62.75 93.8646 62.2292 80.5833 61.1875 69.125C60.6667 57.6667 59.3646 48.5521 57.2812 41.7812C56.2396 38.6562 52.0729 35.7917 44.7812 33.1875C38.0104 30.5833 30.4583 28.5 22.125 26.9375C14.3125 25.375 8.0625 24.5938 3.375 24.5938C1.29167 24.5938 0.25 21.4688 0.25 15.2188C0.25 8.44792 1.29167 4.02083 3.375 1.9375L97.125 3.5C104.938 3.5 113.531 3.5 122.906 3.5C132.281 2.97917 142.177 2.45833 152.594 1.9375C163.01 1.41667 172.906 1.15625 182.281 1.15625C191.656 0.635417 199.99 0.375 207.281 0.375C224.469 0.375 241.917 2.97917 259.625 8.1875C277.333 13.3958 294.26 21.2083 310.406 31.625C327.073 42.0417 340.354 56.8854 350.25 76.1562C360.667 95.4271 365.875 117.823 365.875 143.344C365.875 159.49 362.49 176.677 355.719 194.906C348.948 213.135 338.792 230.323 325.25 246.469C312.229 262.094 295.562 274.854 275.25 284.75C255.458 294.646 232.542 299.594 206.5 299.594C177.333 299.594 157.281 292.302 146.344 277.719C143.219 274.073 142.438 268.083 144 259.75C145.042 257.146 145.823 256.365 146.344 257.406C162.49 263.135 179.938 266 198.688 266C216.396 266 232.281 261.052 246.344 251.156C260.927 240.74 272.385 227.198 280.719 210.531C289.573 193.344 294 174.854 294 155.062C294 118.083 285.927 88.9167 269.781 67.5625C253.635 45.6875 228.635 34.75 194.781 34.75C170.823 34.75 152.594 36.5729 140.094 40.2188C135.406 40.7396 132.542 48.8125 131.5 64.4375C130.979 80.0625 130.719 100.635 130.719 126.156V405.062C130.719 439.438 132.802 462.094 136.969 473.031C139.052 477.198 144 481.104 151.812 484.75C160.146 488.396 169 491.26 178.375 493.344C187.75 494.906 194.521 495.688 198.688 495.688C200.771 495.688 201.812 499.333 201.812 506.625C201.812 510.271 201.292 514.177 200.25 518.344C174.208 517.302 152.594 516.521 135.406 516C118.74 514.958 106.5 514.438 98.6875 514.438L3.375 518.344ZM571.344 521.469C540.094 521.469 511.448 513.656 485.406 498.031C459.365 482.406 438.531 461.312 422.906 434.75C407.802 408.188 400.25 379.021 400.25 347.25C400.25 314.958 407.542 285.792 422.125 259.75C437.229 233.708 457.542 213.135 483.062 198.031C508.583 182.406 537.49 174.594 569.781 174.594C601.031 174.594 629.417 182.406 654.938 198.031C680.979 213.656 701.552 234.49 716.656 260.531C732.281 286.573 740.094 315.479 740.094 347.25C740.094 379.021 732.542 408.188 717.438 434.75C702.333 461.312 682.021 482.406 656.5 498.031C631.5 513.656 603.115 521.469 571.344 521.469ZM578.375 491C597.125 491 613.531 485.01 627.594 473.031C641.656 461.052 652.594 444.906 660.406 424.594C668.74 404.281 672.906 382.146 672.906 358.188C672.906 330.062 667.698 304.542 657.281 281.625C646.865 258.188 633.062 239.698 615.875 226.156C599.208 212.094 580.979 205.062 561.188 205.062C542.958 205.062 526.552 211.052 511.969 223.031C497.906 234.49 486.969 250.115 479.156 269.906C471.344 289.177 467.438 311.052 467.438 335.531C467.438 363.656 472.385 389.698 482.281 413.656C492.698 437.094 506.24 455.844 522.906 469.906C540.094 483.969 558.583 491 578.375 491ZM906.5 524.594C890.354 524.594 875.771 522.771 862.75 519.125C849.729 515.479 833.844 512.354 815.094 509.75C813.01 504.021 810.927 496.208 808.844 486.312C806.76 476.417 804.938 466 803.375 455.062C802.333 444.125 801.812 435.271 801.812 428.5C805.979 425.375 809.104 423.812 811.188 423.812C819 423.812 823.167 425.375 823.688 428.5C825.771 438.917 830.979 449.333 839.312 459.75C847.646 470.167 857.802 479.021 869.781 486.312C881.76 493.083 894 496.469 906.5 496.469C923.167 496.469 936.708 492.042 947.125 483.188C958.062 473.812 963.531 460.531 963.531 443.344C963.531 425.115 956.5 410.01 942.438 398.031C931.5 389.177 922.125 382.927 914.312 379.281C907.021 375.115 899.729 371.469 892.438 368.344C885.667 364.698 877.073 359.75 866.656 353.5C826.031 330.062 805.719 302.198 805.719 269.906C805.719 251.156 810.927 234.75 821.344 220.688C831.76 206.104 845.562 194.906 862.75 187.094C880.458 178.76 899.208 174.594 919 174.594C924.729 174.594 931.24 175.115 938.531 176.156C945.823 176.677 953.896 177.458 962.75 178.5C971.604 180.062 978.896 181.365 984.625 182.406C990.354 183.448 995.042 184.229 998.688 184.75C1004.42 208.708 1007.54 235.271 1008.06 264.438C1008.06 267.042 1004.68 268.344 997.906 268.344C990.615 268.344 986.708 266.521 986.188 262.875C983.583 248.292 976.031 234.49 963.531 221.469C951.552 208.448 937.75 201.938 922.125 201.938C884.625 201.938 865.875 217.302 865.875 248.031C865.875 255.844 866.656 262.875 868.219 269.125C870.302 274.854 874.729 280.323 881.5 285.531C897.646 298.031 916.656 310.531 938.531 323.031C960.927 335.531 979.417 347.25 994 358.188C1015.88 374.854 1026.81 394.385 1026.81 416.781C1026.81 437.094 1021.34 455.583 1010.41 472.25C999.469 488.396 984.885 501.156 966.656 510.531C948.427 519.906 928.375 524.594 906.5 524.594ZM1204.16 521.469C1178.11 521.469 1156.24 512.875 1138.53 495.688C1121.34 478.5 1112.75 454.021 1112.75 422.25V223.812H1067.44C1064.83 223.812 1063.53 218.344 1063.53 207.406C1063.53 204.281 1063.79 202.458 1064.31 201.938C1079.94 194.646 1096.34 180.844 1113.53 160.531C1125.51 146.469 1134.36 134.229 1140.09 123.812C1146.34 113.396 1149.47 107.146 1149.47 105.062C1165.09 105.062 1172.91 106.365 1172.91 108.969V186.312L1234.62 187.094H1278.38C1282.54 187.094 1284.62 189.438 1284.62 194.125C1284.62 204.021 1282.02 213.917 1276.81 223.812H1172.91V415.219C1172.91 436.052 1178.11 452.719 1188.53 465.219C1199.47 477.719 1213.53 483.969 1230.72 483.969C1246.86 483.969 1263.01 479.021 1279.16 469.125C1280.72 468.083 1283.06 470.427 1286.19 476.156C1289.31 481.365 1290.61 484.229 1290.09 484.75C1282.28 493.083 1270.3 501.417 1254.16 509.75C1238.01 517.562 1221.34 521.469 1204.16 521.469ZM1432.28 524.594C1416.14 524.594 1401.55 522.771 1388.53 519.125C1375.51 515.479 1359.62 512.354 1340.88 509.75C1338.79 504.021 1336.71 496.208 1334.62 486.312C1332.54 476.417 1330.72 466 1329.16 455.062C1328.11 444.125 1327.59 435.271 1327.59 428.5C1331.76 425.375 1334.89 423.812 1336.97 423.812C1344.78 423.812 1348.95 425.375 1349.47 428.5C1351.55 438.917 1356.76 449.333 1365.09 459.75C1373.43 470.167 1383.58 479.021 1395.56 486.312C1407.54 493.083 1419.78 496.469 1432.28 496.469C1448.95 496.469 1462.49 492.042 1472.91 483.188C1483.84 473.812 1489.31 460.531 1489.31 443.344C1489.31 425.115 1482.28 410.01 1468.22 398.031C1457.28 389.177 1447.91 382.927 1440.09 379.281C1432.8 375.115 1425.51 371.469 1418.22 368.344C1411.45 364.698 1402.85 359.75 1392.44 353.5C1351.81 330.062 1331.5 302.198 1331.5 269.906C1331.5 251.156 1336.71 234.75 1347.12 220.688C1357.54 206.104 1371.34 194.906 1388.53 187.094C1406.24 178.76 1424.99 174.594 1444.78 174.594C1450.51 174.594 1457.02 175.115 1464.31 176.156C1471.6 176.677 1479.68 177.458 1488.53 178.5C1497.39 180.062 1504.68 181.365 1510.41 182.406C1516.14 183.448 1520.82 184.229 1524.47 184.75C1530.2 208.708 1533.32 235.271 1533.84 264.438C1533.84 267.042 1530.46 268.344 1523.69 268.344C1516.4 268.344 1512.49 266.521 1511.97 262.875C1509.36 248.292 1501.81 234.49 1489.31 221.469C1477.33 208.448 1463.53 201.938 1447.91 201.938C1410.41 201.938 1391.66 217.302 1391.66 248.031C1391.66 255.844 1392.44 262.875 1394 269.125C1396.08 274.854 1400.51 280.323 1407.28 285.531C1423.43 298.031 1442.44 310.531 1464.31 323.031C1486.71 335.531 1505.2 347.25 1519.78 358.188C1541.66 374.854 1552.59 394.385 1552.59 416.781C1552.59 437.094 1547.12 455.583 1536.19 472.25C1525.25 488.396 1510.67 501.156 1492.44 510.531C1474.21 519.906 1454.16 524.594 1432.28 524.594Z" fill="#A2A8B5"/>
</svg>
