<svg class="svg-title" width="100%" height="50%" viewBox="0 0 1773 450" fill="none" xmlns="http://www.w3.org/2000/svg">
<path d="M100.117 343.883C92.3047 343.883 84.0039 343.232 75.2148 341.93C66.4258 340.953 59.1016 339.814 53.2422 338.512C41.1979 336.233 32.4089 334.443 26.875 333.141C21.6667 331.513 16.7839 330.374 12.2266 329.723C7.99479 309.54 4.90234 293.102 2.94922 280.406C0.996094 267.385 0.0195312 257.945 0.0195312 252.086C0.0195312 250.133 2.6237 249.156 7.83203 249.156C13.6914 249.156 17.7604 250.621 20.0391 253.551C31.4323 300.426 58.4505 323.863 101.094 323.863C117.37 323.863 131.204 318.98 142.598 309.215C153.991 299.449 159.688 285.615 159.688 267.711C159.688 261.852 158.385 254.69 155.781 246.227C153.503 237.763 148.132 230.439 139.668 224.254C133.158 219.371 127.786 215.79 123.555 213.512C119.323 210.908 115.091 208.629 110.859 206.676C106.628 204.397 101.257 201.305 94.7461 197.398L75.2148 185.68C65.1237 179.495 55.0326 172.496 44.9414 164.684C34.8503 156.546 26.3867 147.105 19.5508 136.363C13.0404 125.621 9.78516 113.414 9.78516 99.7422C9.78516 82.4896 14.1797 67.5156 22.9688 54.8203C32.0833 41.7995 43.8021 31.7083 58.125 24.5469C72.7734 17.3854 88.5612 13.8047 105.488 13.8047C112.65 13.8047 119.323 14.293 125.508 15.2695C132.018 15.9206 137.389 16.7344 141.621 17.7109C151.387 19.9896 158.223 21.7799 162.129 23.082C166.361 24.3841 172.057 25.849 179.219 27.4766C183.125 44.4036 185.078 67.6784 185.078 97.3008C185.078 99.5794 183.451 100.719 180.195 100.719C172.057 100.719 167.826 99.0911 167.5 95.8359C165.872 86.0703 162.292 76.4674 156.758 67.0273C151.224 57.5872 143.737 49.7747 134.297 43.5898C124.857 37.0794 113.626 33.8242 100.605 33.8242C87.2591 33.8242 76.8424 36.4284 69.3555 41.6367C61.8685 46.5195 56.4974 52.8672 53.2422 60.6797C50.3125 68.1667 48.8477 76.1419 48.8477 84.6055C48.8477 92.7435 50.8008 100.882 54.707 109.02C58.6133 117.158 64.3099 123.993 71.7969 129.527C81.888 137.014 91.9792 144.013 102.07 150.523C112.487 157.034 123.229 163.707 134.297 170.543C144.714 177.053 155.13 184.378 165.547 192.516C175.964 200.328 184.59 209.28 191.426 219.371C198.587 229.462 202.168 241.181 202.168 254.527C202.168 271.78 197.448 287.242 188.008 300.914C178.568 314.26 166.035 324.84 150.41 332.652C135.111 340.139 118.346 343.883 100.117 343.883ZM230 449.352C228.698 448.049 228.047 445.445 228.047 441.539C228.047 437.307 228.698 435.191 230 435.191C232.604 435.191 236.185 434.703 240.742 433.727C245.299 432.75 249.531 431.448 253.438 429.82C257.344 428.193 259.46 426.728 259.785 425.426C261.087 420.868 261.901 415.66 262.227 409.801C262.878 403.941 263.203 397.757 263.203 391.246V189.586C263.203 177.216 260.924 168.427 256.367 163.219C253.112 159.312 249.206 156.708 244.648 155.406C240.417 154.104 236.51 153.453 232.93 153.453C229.674 153.128 228.047 152.639 228.047 151.988C228.047 144.176 229.023 140.107 230.977 139.781C265.482 134.573 287.617 130.504 297.383 127.574L300.801 126.598C302.428 126.598 303.079 128.388 302.754 131.969C302.428 135.224 302.103 137.991 301.777 140.27L301.289 143.199C304.544 140.921 309.102 138.479 314.961 135.875C320.82 133.271 327.005 130.992 333.516 129.039C340.352 127.086 346.211 126.109 351.094 126.109C373.229 126.109 391.621 131.155 406.27 141.246C421.243 151.012 432.311 163.544 439.473 178.844C446.96 193.818 450.703 209.117 450.703 224.742C450.703 240.367 447.773 255.341 441.914 269.664C436.055 283.661 428.079 296.194 417.988 307.262C407.897 318.329 396.341 327.118 383.32 333.629C370.625 339.814 357.441 342.906 343.77 342.906C333.678 342.906 326.029 342.092 320.82 340.465C315.612 339.163 309.59 336.884 302.754 333.629C301.452 334.931 300.801 337.047 300.801 339.977V381.969C300.801 391.409 301.126 399.71 301.777 406.871C302.428 414.033 303.405 420.217 304.707 425.426C305.358 426.728 307.637 428.193 311.543 429.82C315.449 431.448 319.681 432.75 324.238 433.727C328.796 434.703 332.051 435.191 334.004 435.191C334.98 435.191 335.632 437.145 335.957 441.051C336.283 445.283 336.12 448.049 335.469 449.352L283.223 446.91L230 449.352ZM345.723 322.398C358.743 322.398 369.811 318.492 378.926 310.68C388.366 302.542 395.69 292.125 400.898 279.43C406.107 266.409 408.711 252.737 408.711 238.414C408.711 220.185 405.293 204.56 398.457 191.539C391.947 178.193 383.158 167.939 372.09 160.777C361.022 153.616 348.815 150.035 335.469 150.035C325.378 150.035 317.077 152.802 310.566 158.336C304.056 163.544 300.801 171.194 300.801 181.285V291.148C300.801 299.938 305.521 307.424 314.961 313.609C324.401 319.469 334.655 322.398 345.723 322.398ZM594.258 342.418C574.727 342.418 556.823 337.535 540.547 327.77C524.271 318.004 511.25 304.82 501.484 288.219C492.044 271.617 487.324 253.388 487.324 233.531C487.324 213.349 491.882 195.12 500.996 178.844C510.436 162.568 523.132 149.71 539.082 140.27C555.033 130.504 573.099 125.621 593.281 125.621C612.812 125.621 630.553 130.504 646.504 140.27C662.78 150.035 675.638 163.056 685.078 179.332C694.844 195.608 699.727 213.674 699.727 233.531C699.727 253.388 695.007 271.617 685.566 288.219C676.126 304.82 663.431 318.004 647.48 327.77C631.855 337.535 614.115 342.418 594.258 342.418ZM598.652 323.375C610.371 323.375 620.625 319.632 629.414 312.145C638.203 304.658 645.039 294.566 649.922 281.871C655.13 269.176 657.734 255.341 657.734 240.367C657.734 222.789 654.479 206.839 647.969 192.516C641.458 177.867 632.832 166.311 622.09 157.848C611.673 149.059 600.28 144.664 587.91 144.664C576.517 144.664 566.263 148.408 557.148 155.895C548.359 163.056 541.523 172.822 536.641 185.191C531.758 197.236 529.316 210.908 529.316 226.207C529.316 243.785 532.409 260.061 538.594 275.035C545.104 289.684 553.568 301.402 563.984 310.191C574.727 318.98 586.283 323.375 598.652 323.375ZM814.473 342.418C798.197 342.418 784.525 337.047 773.457 326.305C762.715 315.562 757.344 300.263 757.344 280.406V156.383H729.023C727.396 156.383 726.582 152.965 726.582 146.129C726.582 144.176 726.745 143.036 727.07 142.711C736.836 138.154 747.09 129.527 757.832 116.832C765.319 108.043 770.853 100.393 774.434 93.8828C778.34 87.3724 780.293 83.4661 780.293 82.1641C790.059 82.1641 794.941 82.9779 794.941 84.6055V132.945L833.516 133.434H860.859C863.464 133.434 864.766 134.898 864.766 137.828C864.766 144.013 863.138 150.198 859.883 156.383H794.941V276.012C794.941 289.033 798.197 299.449 804.707 307.262C811.543 315.074 820.332 318.98 831.074 318.98C841.165 318.98 851.257 315.888 861.348 309.703C862.324 309.052 863.789 310.517 865.742 314.098C867.695 317.353 868.509 319.143 868.184 319.469C863.301 324.677 855.814 329.885 845.723 335.094C835.632 339.977 825.215 342.418 814.473 342.418ZM880.879 340.465C879.577 339.163 878.926 336.396 878.926 332.164C878.926 328.258 879.577 326.305 880.879 326.305C883.483 326.305 887.064 325.816 891.621 324.84C896.178 323.863 900.41 322.561 904.316 320.934C908.223 319.306 910.339 317.841 910.664 316.539C911.966 311.982 912.78 306.773 913.105 300.914C913.757 295.055 914.082 288.87 914.082 282.359V70.9336C914.082 59.8659 913.105 49.4492 911.152 39.6836C909.85 34.4753 901.549 31.8711 886.25 31.8711H881.855C879.902 31.8711 878.926 30.0807 878.926 26.5C878.926 21.2917 879.902 18.6875 881.855 18.6875C901.387 16.4089 915.872 13.8047 925.312 10.875C934.753 7.94531 941.263 5.34115 944.844 3.0625L949.727 0.132812H950.703C952.005 0.132812 953.307 1.10938 954.609 3.0625C955.911 4.6901 956.725 6.31771 957.051 7.94531C953.47 18.6875 951.68 32.8477 951.68 50.4258V273.082C951.68 282.522 952.005 290.823 952.656 297.984C953.307 305.146 954.284 311.331 955.586 316.539C956.237 317.841 958.516 319.306 962.422 320.934C966.328 322.561 970.56 323.863 975.117 324.84C979.674 325.816 982.93 326.305 984.883 326.305C985.859 326.305 986.51 328.258 986.836 332.164C987.161 336.07 986.999 338.837 986.348 340.465L934.102 338.023L880.879 340.465ZM1011.74 340.465C1010.44 339.163 1009.79 336.396 1009.79 332.164C1009.79 328.258 1010.44 326.305 1011.74 326.305C1014.34 326.305 1017.92 325.816 1022.48 324.84C1027.04 323.863 1031.27 322.561 1035.18 320.934C1039.08 319.306 1041.2 317.841 1041.52 316.539C1042.83 311.982 1043.64 306.773 1043.96 300.914C1044.62 295.055 1044.94 288.87 1044.94 282.359V190.074C1044.94 177.704 1042.66 168.915 1038.11 163.707C1034.85 159.475 1030.94 156.871 1026.39 155.895C1021.83 154.592 1017.92 153.941 1014.67 153.941C1011.41 153.616 1009.79 153.128 1009.79 152.477C1009.79 144.664 1010.76 140.595 1012.71 140.27C1029.97 137.665 1043.15 135.549 1052.27 133.922C1061.38 131.969 1069.52 130.178 1076.68 128.551L1082.54 127.086C1083.84 126.76 1084.65 128.062 1084.98 130.992C1085.31 133.922 1085.31 136.038 1084.98 137.34C1084.33 143.85 1083.68 150.035 1083.03 155.895C1082.7 161.754 1082.54 167.288 1082.54 172.496V273.082C1082.54 282.522 1082.86 290.823 1083.52 297.984C1084.17 305.146 1085.14 311.331 1086.45 316.539C1087.1 317.841 1089.38 319.306 1093.28 320.934C1097.19 322.561 1101.42 323.863 1105.98 324.84C1110.53 325.816 1113.79 326.305 1115.74 326.305C1116.72 326.305 1117.37 328.258 1117.7 332.164C1118.02 336.07 1117.86 338.837 1117.21 340.465L1064.96 338.023L1011.74 340.465ZM1060.08 73.8633C1053.57 73.8633 1047.87 71.4219 1042.99 66.5391C1038.11 61.6562 1035.66 55.9596 1035.66 49.4492C1035.66 42.6133 1038.11 36.9167 1042.99 32.3594C1047.87 27.4766 1053.57 25.0352 1060.08 25.0352C1066.91 25.0352 1072.61 27.4766 1077.17 32.3594C1082.05 36.9167 1084.49 42.6133 1084.49 49.4492C1084.49 55.9596 1082.05 61.6562 1077.17 66.5391C1072.61 71.4219 1066.91 73.8633 1060.08 73.8633ZM1235.86 449.84C1220.56 449.84 1205.91 447.887 1191.91 443.98C1178.24 440.074 1167.17 434.052 1158.71 425.914C1150.25 417.776 1146.02 407.685 1146.02 395.641C1146.02 375.458 1161.97 358.206 1193.87 343.883C1185.08 342.581 1176.94 338.512 1169.45 331.676C1161.97 324.84 1158.22 316.539 1158.22 306.773C1158.22 298.31 1161.8 289.521 1168.96 280.406C1176.45 271.292 1184.75 263.805 1193.87 257.945C1187.36 255.341 1181.01 250.947 1174.82 244.762C1168.96 238.577 1164.08 231.253 1160.18 222.789C1156.27 214.326 1154.32 205.536 1154.32 196.422C1154.32 183.401 1158.06 171.845 1165.55 161.754C1173.03 151.337 1182.96 143.199 1195.33 137.34C1208.03 131.155 1222.19 128.062 1237.81 128.062C1250.51 128.062 1264.34 130.178 1279.32 134.41C1294.29 138.642 1307.15 140.758 1317.89 140.758H1346.21C1348.16 141.083 1349.14 145.152 1349.14 152.965C1349.14 157.522 1348.16 159.801 1346.21 159.801H1311.54C1310.24 159.801 1309.59 160.289 1309.59 161.266L1314.47 172.984C1318.05 181.122 1319.84 188.935 1319.84 196.422C1319.84 208.141 1316.26 219.208 1309.1 229.625C1301.94 240.042 1292.17 248.505 1279.8 255.016C1267.76 261.526 1254.09 264.781 1238.79 264.781C1233.58 264.781 1228.7 264.618 1224.14 264.293C1219.58 263.967 1215.35 263.479 1211.45 262.828C1205.26 267.385 1200.21 272.105 1196.31 276.988C1192.73 281.871 1190.94 286.754 1190.94 291.637C1190.94 299.775 1195.49 304.983 1204.61 307.262C1213.72 309.54 1225.44 310.68 1239.77 310.68C1259.95 311.005 1277.04 312.307 1291.04 314.586C1305.36 316.539 1316.59 319.306 1324.73 322.887C1341 330.699 1349.14 342.255 1349.14 357.555C1349.14 374.156 1344.26 389.456 1334.49 403.453C1325.05 417.451 1311.71 428.518 1294.45 436.656C1277.53 445.12 1257.99 449.514 1235.86 449.84ZM1238.3 248.18C1251 248.18 1261.41 243.297 1269.55 233.531C1278.01 223.766 1282.25 212.047 1282.25 198.375C1282.25 183.401 1277.53 170.706 1268.09 160.289C1258.97 149.872 1248.23 144.664 1235.86 144.664C1223.16 144.664 1212.58 149.547 1204.12 159.312C1195.98 169.078 1191.91 180.797 1191.91 194.469C1191.91 209.443 1196.47 222.138 1205.59 232.555C1215.03 242.971 1225.93 248.18 1238.3 248.18ZM1250.02 431.773C1263.04 431.773 1274.6 429.332 1284.69 424.449C1294.78 419.566 1302.59 413.219 1308.12 405.406C1313.98 397.594 1316.91 389.293 1316.91 380.504C1316.91 366.832 1310.24 357.717 1296.89 353.16C1283.87 348.277 1257.99 345.836 1219.26 345.836C1216.65 345.836 1212.1 347.301 1205.59 350.23C1199.4 353.16 1193.54 357.392 1188.01 362.926C1182.8 368.785 1180.2 376.109 1180.2 384.898C1180.2 394.013 1183.61 402.151 1190.45 409.312C1197.29 416.474 1205.91 422.008 1216.33 425.914C1227.07 429.82 1238.3 431.773 1250.02 431.773ZM1374.04 340.465C1372.74 339.163 1372.09 336.396 1372.09 332.164C1372.09 328.258 1372.74 326.305 1374.04 326.305C1376.65 326.305 1380.23 325.816 1384.79 324.84C1389.34 323.863 1393.57 322.561 1397.48 320.934C1401.39 319.306 1403.5 317.841 1403.83 316.539C1406.11 307.75 1407.25 296.52 1407.25 282.848V70.9336C1407.25 59.8659 1406.27 49.4492 1404.32 39.6836C1403.01 34.4753 1394.71 31.8711 1379.41 31.8711H1375.02C1373.07 31.8711 1372.09 30.0807 1372.09 26.5C1372.09 21.2917 1373.07 18.6875 1375.02 18.6875C1391.62 17.0599 1405.62 14.4557 1417.01 10.875C1428.4 6.96875 1436.22 3.8763 1440.45 1.59766L1442.89 0.132812H1443.87C1445.17 0.132812 1446.47 1.10938 1447.77 3.0625C1449.08 4.6901 1449.89 6.31771 1450.21 7.94531C1446.63 18.6875 1444.84 32.8477 1444.84 50.4258V157.359C1444.84 158.661 1445.17 159.312 1445.82 159.312C1446.15 159.312 1446.63 158.987 1447.29 158.336C1452.17 153.128 1458.35 148.082 1465.84 143.199C1473.65 137.991 1481.95 133.759 1490.74 130.504C1499.53 126.923 1507.83 125.133 1515.64 125.133C1537.45 125.133 1553.08 132.945 1562.52 148.57C1571.96 164.195 1576.68 188.284 1576.68 220.836V273.57C1576.68 282.685 1577.01 290.823 1577.66 297.984C1578.31 305.146 1579.28 311.331 1580.59 316.539C1581.24 317.841 1583.52 319.306 1587.42 320.934C1591.33 322.561 1595.56 323.863 1600.12 324.84C1604.67 325.816 1607.93 326.305 1609.88 326.305C1610.86 326.305 1611.51 328.258 1611.84 332.164C1612.16 336.07 1612 338.837 1611.35 340.465L1559.1 338.023L1507.83 340.465C1506.53 339.163 1505.88 336.396 1505.88 332.164C1505.88 328.258 1506.53 326.305 1507.83 326.305C1510.44 326.305 1513.85 325.816 1518.09 324.84C1522.32 323.863 1526.22 322.561 1529.8 320.934C1533.39 319.306 1535.34 317.841 1535.66 316.539C1536.97 311.982 1537.78 306.773 1538.11 300.914C1538.76 295.055 1539.08 288.87 1539.08 282.359V230.602C1539.08 210.419 1537.29 194.957 1533.71 184.215C1530.13 173.147 1524.6 165.497 1517.11 161.266C1509.62 157.034 1500.02 154.918 1488.3 154.918C1481.79 154.918 1475.12 156.871 1468.28 160.777C1461.77 164.358 1456.24 168.59 1451.68 173.473C1447.12 178.355 1444.84 182.75 1444.84 186.656V273.082C1444.84 282.522 1445.17 290.823 1445.82 297.984C1446.47 305.146 1447.45 311.331 1448.75 316.539C1449.4 317.841 1451.68 319.306 1455.59 320.934C1459.49 322.561 1463.72 323.863 1468.28 324.84C1472.84 325.816 1476.09 326.305 1478.05 326.305C1479.02 326.305 1479.67 328.258 1480 332.164C1480.33 336.07 1480.16 338.837 1479.51 340.465L1427.27 338.023L1374.04 340.465ZM1718.28 342.418C1702.01 342.418 1688.33 337.047 1677.27 326.305C1666.52 315.562 1661.15 300.263 1661.15 280.406V156.383H1632.83C1631.2 156.383 1630.39 152.965 1630.39 146.129C1630.39 144.176 1630.55 143.036 1630.88 142.711C1640.64 138.154 1650.9 129.527 1661.64 116.832C1669.13 108.043 1674.66 100.393 1678.24 93.8828C1682.15 87.3724 1684.1 83.4661 1684.1 82.1641C1693.87 82.1641 1698.75 82.9779 1698.75 84.6055V132.945L1737.32 133.434H1764.67C1767.27 133.434 1768.57 134.898 1768.57 137.828C1768.57 144.013 1766.95 150.198 1763.69 156.383H1698.75V276.012C1698.75 289.033 1702.01 299.449 1708.52 307.262C1715.35 315.074 1724.14 318.98 1734.88 318.98C1744.97 318.98 1755.07 315.888 1765.16 309.703C1766.13 309.052 1767.6 310.517 1769.55 314.098C1771.5 317.353 1772.32 319.143 1771.99 319.469C1767.11 324.677 1759.62 329.885 1749.53 335.094C1739.44 339.977 1729.02 342.418 1718.28 342.418Z" fill="#A2A8B5"/>
</svg>
