<svg class="svg-title" width="100%" height="50%"
 viewBox="0 0 2726 552" fill="none" xmlns="http://www.w3.org/2000/svg">
<path d="M148.531 545.344C146.448 543.26 145.406 539.354 145.406 533.625C145.406 526.333 146.448 522.688 148.531 522.688C153.219 522.688 159.469 522.167 167.281 521.125C175.094 519.562 182.385 517.479 189.156 514.875C195.927 512.271 199.833 509.667 200.875 507.062C202.958 499.771 204.26 490.396 204.781 478.938C205.823 467.479 206.344 453.677 206.344 437.531V154.719C206.344 109.406 204 82.5833 199.312 74.25C195.667 66.4375 167.542 62.5312 114.938 62.5312C95.1458 62.5312 79.7812 64.3542 68.8438 68C57.9062 71.125 49.5729 77.6354 43.8438 87.5312C38.1146 97.4271 32.6458 112.271 27.4375 132.062C26.3958 134.667 23.7917 135.969 19.625 135.969C10.7708 135.969 4.52083 134.146 0.875 130.5L15.7188 18.7812C27.1771 21.3854 37.3333 23.4688 46.1875 25.0312C55.0417 26.5938 62.8542 27.375 69.625 27.375C107.125 27.375 140.198 27.8958 168.844 28.9375C197.49 29.9792 221.448 30.5 240.719 30.5C280.823 30.5 315.198 29.9792 343.844 28.9375C373.01 27.8958 395.927 27.375 412.594 27.375C419.365 27.375 427.177 26.5938 436.031 25.0312C444.885 23.4688 455.042 21.3854 466.5 18.7812L481.344 130.5C477.698 134.146 471.448 135.969 462.594 135.969C458.427 135.969 455.823 134.667 454.781 132.062C450.094 112.271 444.625 97.4271 438.375 87.5312C432.646 77.6354 424.312 71.125 413.375 68C402.438 64.3542 387.073 62.5312 367.281 62.5312C312.594 62.5312 283.948 66.4375 281.344 74.25C276.656 90.3958 274.312 116.438 274.312 152.375V434.406C274.312 464.615 276.656 488.833 281.344 507.062C282.385 509.146 286.292 511.49 293.062 514.094C299.833 516.698 307.125 518.781 314.938 520.344C322.75 521.906 328.219 522.688 331.344 522.688C333.427 522.688 334.469 526.594 334.469 534.406C334.469 537.531 333.948 541.177 332.906 545.344C306.865 544.302 286.292 543.521 271.188 543C256.083 541.958 246.448 541.438 242.281 541.438L148.531 545.344ZM625.875 547.688C597.229 547.688 570.927 540.135 546.969 525.031C523.01 509.927 503.74 489.875 489.156 464.875C475.094 439.354 468.062 410.969 468.062 379.719C468.062 343.26 474.833 311.75 488.375 285.188C501.917 258.625 520.406 238.312 543.844 224.25C567.281 209.667 593.583 202.375 622.75 202.375C646.708 202.375 667.802 207.062 686.031 216.438C704.26 225.292 718.323 236.75 728.219 250.812C737.594 265.396 744.365 280.24 748.531 295.344C753.219 309.927 755.562 324.51 755.562 339.094C755.562 349.51 754 356.021 750.875 358.625C747.75 360.708 741.76 361.75 732.906 361.75H536.031C531.865 361.75 529.781 363.052 529.781 365.656C529.781 387.531 534.208 408.625 543.062 428.938C551.917 448.729 564.938 465.135 582.125 478.156C599.312 491.177 620.406 497.688 645.406 497.688C667.281 497.688 685.51 494.562 700.094 488.312C715.198 481.542 726.135 475.552 732.906 470.344L738.375 466.438C741.5 466.438 743.062 469.823 743.062 476.594C743.062 480.24 741.5 484.927 738.375 490.656C727.958 505.24 712.594 518.521 692.281 530.5C671.969 541.958 649.833 547.688 625.875 547.688ZM536.031 328.938H688.375C690.979 328.938 692.281 326.333 692.281 321.125C692.281 309.667 689.156 297.167 682.906 283.625C677.177 269.562 668.323 257.323 656.344 246.906C644.365 236.49 629.26 231.281 611.031 231.281C594.365 231.281 580.042 237.01 568.062 248.469C556.083 259.406 546.969 272.167 540.719 286.75C534.469 300.812 531.344 313.052 531.344 323.469C531.344 327.115 532.906 328.938 536.031 328.938ZM888.375 548.469C864.417 548.469 844.625 542.219 829 529.719C813.375 516.698 805.562 497.427 805.562 471.906C805.562 440.656 825.875 414.615 866.5 393.781C884.208 384.927 901.656 377.896 918.844 372.688C936.552 367.479 954.26 361.49 971.969 354.719C976.656 353.156 979 349.25 979 343V284.406C979 267.74 973.792 254.979 963.375 246.125C952.958 236.75 940.458 232.062 925.875 232.062C910.25 232.062 897.229 237.531 886.812 248.469C876.396 258.885 871.188 272.688 871.188 289.875C871.188 308.104 860.51 317.219 839.156 317.219C824.052 317.219 813.896 312.271 808.688 302.375C808.688 291.438 813.115 280.24 821.969 268.781C831.344 256.802 843.323 245.865 857.906 235.969C872.49 226.073 888.375 218 905.562 211.75C923.271 205.5 940.719 202.375 957.906 202.375C986.552 202.375 1007.12 209.406 1019.62 223.469C1032.12 237.01 1038.38 259.146 1038.38 289.875V470.344C1038.38 481.281 1041.24 490.396 1046.97 497.688C1052.7 504.979 1060.51 508.625 1070.41 508.625C1077.18 508.625 1086.29 504.979 1097.75 497.688C1099.83 497.688 1100.88 499.771 1100.88 503.938C1100.88 510.708 1099.57 516.177 1096.97 520.344C1075.61 538.573 1057.39 547.688 1042.28 547.688C1030.3 547.688 1018.84 542.74 1007.91 532.844C996.969 522.948 989.417 512.531 985.25 501.594C982.646 503.677 979.26 506.542 975.094 510.188C971.448 513.312 968.323 515.917 965.719 518C954.781 526.333 942.802 533.625 929.781 539.875C917.281 545.604 903.479 548.469 888.375 548.469ZM918.062 503.938C932.646 503.938 946.448 499.771 959.469 491.438C972.49 483.104 979 474.25 979 464.875V384.406C965.458 389.615 952.438 394.302 939.938 398.469C927.958 402.635 918.323 406.021 911.031 408.625C901.656 412.271 892.542 418.781 883.688 428.156C875.354 437.531 871.188 448.208 871.188 460.188C871.188 475.812 875.875 487.01 885.25 493.781C895.146 500.552 906.083 503.938 918.062 503.938ZM1292.28 547.688C1263.64 547.688 1237.33 540.135 1213.38 525.031C1189.42 509.927 1170.15 489.875 1155.56 464.875C1141.5 439.354 1134.47 410.969 1134.47 379.719C1134.47 347.427 1140.2 318 1151.66 291.438C1163.64 264.354 1180.82 242.74 1203.22 226.594C1226.14 210.448 1253.74 202.375 1286.03 202.375C1343.32 202.375 1382.91 215.656 1404.78 242.219C1404.78 277.115 1395.15 294.562 1375.88 294.562C1367.02 294.562 1360.25 292.74 1355.56 289.094C1350.88 284.927 1344.89 277.635 1337.59 267.219C1321.45 243.26 1302.18 231.281 1279.78 231.281C1258.43 231.281 1238.9 241.438 1221.19 261.75C1204 282.062 1195.41 312.271 1195.41 352.375C1195.41 394.042 1205.56 428.677 1225.88 456.281C1246.71 483.885 1275.35 497.688 1311.81 497.688C1333.69 497.688 1351.92 494.562 1366.5 488.312C1381.6 481.542 1392.54 475.552 1399.31 470.344L1404.78 466.438C1407.91 466.438 1409.47 469.823 1409.47 476.594C1409.47 480.24 1407.91 484.927 1404.78 490.656C1394.36 505.24 1379 518.521 1358.69 530.5C1338.38 541.958 1316.24 547.688 1292.28 547.688ZM1439.16 545.344C1437.07 543.26 1436.03 538.833 1436.03 532.062C1436.03 525.812 1437.07 522.688 1439.16 522.688C1443.32 522.688 1449.05 521.906 1456.34 520.344C1463.64 518.781 1470.41 516.698 1476.66 514.094C1482.91 511.49 1486.29 509.146 1486.81 507.062C1490.46 493 1492.28 475.031 1492.28 453.156V114.094C1492.28 96.3854 1490.72 79.7188 1487.59 64.0938C1485.51 55.7604 1472.23 51.5938 1447.75 51.5938H1440.72C1437.59 51.5938 1436.03 48.7292 1436.03 43C1436.03 34.6667 1437.59 30.5 1440.72 30.5C1467.28 27.8958 1489.68 23.7292 1507.91 18C1526.14 11.75 1538.64 6.80208 1545.41 3.15625L1549.31 0.8125H1550.88C1552.96 0.8125 1555.04 2.375 1557.12 5.5C1559.21 8.10417 1560.51 10.7083 1561.03 13.3125C1555.3 30.5 1552.44 53.1562 1552.44 81.2812V252.375C1552.44 254.458 1552.96 255.5 1554 255.5C1554.52 255.5 1555.3 254.979 1556.34 253.938C1564.16 245.604 1574.05 237.531 1586.03 229.719C1598.53 221.385 1611.81 214.615 1625.88 209.406C1639.94 203.677 1653.22 200.812 1665.72 200.812C1700.61 200.812 1725.61 213.312 1740.72 238.312C1755.82 263.312 1763.38 301.854 1763.38 353.938V438.312C1763.38 452.896 1763.9 465.917 1764.94 477.375C1765.98 488.833 1767.54 498.729 1769.62 507.062C1770.67 509.146 1774.31 511.49 1780.56 514.094C1786.81 516.698 1793.58 518.781 1800.88 520.344C1808.17 521.906 1813.38 522.688 1816.5 522.688C1818.06 522.688 1819.1 525.812 1819.62 532.062C1820.15 538.312 1819.89 542.74 1818.84 545.344L1735.25 541.438L1653.22 545.344C1651.14 543.26 1650.09 538.833 1650.09 532.062C1650.09 525.812 1651.14 522.688 1653.22 522.688C1657.39 522.688 1662.85 521.906 1669.62 520.344C1676.4 518.781 1682.65 516.698 1688.38 514.094C1694.1 511.49 1697.23 509.146 1697.75 507.062C1699.83 499.771 1701.14 491.438 1701.66 482.062C1702.7 472.688 1703.22 462.792 1703.22 452.375V369.562C1703.22 337.271 1700.35 312.531 1694.62 295.344C1688.9 277.635 1680.04 265.396 1668.06 258.625C1656.08 251.854 1640.72 248.469 1621.97 248.469C1611.55 248.469 1600.88 251.594 1589.94 257.844C1579.52 263.573 1570.67 270.344 1563.38 278.156C1556.08 285.969 1552.44 293 1552.44 299.25V437.531C1552.44 452.635 1552.96 465.917 1554 477.375C1555.04 488.833 1556.6 498.729 1558.69 507.062C1559.73 509.146 1563.38 511.49 1569.62 514.094C1575.88 516.698 1582.65 518.781 1589.94 520.344C1597.23 521.906 1602.44 522.688 1605.56 522.688C1607.12 522.688 1608.17 525.812 1608.69 532.062C1609.21 538.312 1608.95 542.74 1607.91 545.344L1524.31 541.438L1439.16 545.344ZM2022.75 547.688C1994.1 547.688 1967.8 540.135 1943.84 525.031C1919.89 509.927 1900.61 489.875 1886.03 464.875C1871.97 439.354 1864.94 410.969 1864.94 379.719C1864.94 343.26 1871.71 311.75 1885.25 285.188C1898.79 258.625 1917.28 238.312 1940.72 224.25C1964.16 209.667 1990.46 202.375 2019.62 202.375C2043.58 202.375 2064.68 207.062 2082.91 216.438C2101.14 225.292 2115.2 236.75 2125.09 250.812C2134.47 265.396 2141.24 280.24 2145.41 295.344C2150.09 309.927 2152.44 324.51 2152.44 339.094C2152.44 349.51 2150.88 356.021 2147.75 358.625C2144.62 360.708 2138.64 361.75 2129.78 361.75H1932.91C1928.74 361.75 1926.66 363.052 1926.66 365.656C1926.66 387.531 1931.08 408.625 1939.94 428.938C1948.79 448.729 1961.81 465.135 1979 478.156C1996.19 491.177 2017.28 497.688 2042.28 497.688C2064.16 497.688 2082.39 494.562 2096.97 488.312C2112.07 481.542 2123.01 475.552 2129.78 470.344L2135.25 466.438C2138.38 466.438 2139.94 469.823 2139.94 476.594C2139.94 480.24 2138.38 484.927 2135.25 490.656C2124.83 505.24 2109.47 518.521 2089.16 530.5C2068.84 541.958 2046.71 547.688 2022.75 547.688ZM1932.91 328.938H2085.25C2087.85 328.938 2089.16 326.333 2089.16 321.125C2089.16 309.667 2086.03 297.167 2079.78 283.625C2074.05 269.562 2065.2 257.323 2053.22 246.906C2041.24 236.49 2026.14 231.281 2007.91 231.281C1991.24 231.281 1976.92 237.01 1964.94 248.469C1952.96 259.406 1943.84 272.167 1937.59 286.75C1931.34 300.812 1928.22 313.052 1928.22 323.469C1928.22 327.115 1929.78 328.938 1932.91 328.938ZM2200.88 545.344C2198.79 543.26 2197.75 538.833 2197.75 532.062C2197.75 525.812 2198.79 522.688 2200.88 522.688C2205.04 522.688 2210.77 521.906 2218.06 520.344C2225.35 518.781 2232.12 516.698 2238.38 514.094C2244.62 511.49 2248.01 509.146 2248.53 507.062C2250.61 499.771 2251.92 491.438 2252.44 482.062C2253.48 472.688 2254 462.792 2254 452.375V304.719C2254 284.927 2250.35 270.865 2243.06 262.531C2237.85 256.281 2231.6 252.115 2224.31 250.031C2217.54 247.948 2211.29 246.906 2205.56 246.906C2200.35 246.385 2197.75 245.604 2197.75 244.562C2197.75 232.062 2199.31 225.552 2202.44 225.031C2259.21 216.177 2292.02 210.448 2300.88 207.844L2314.16 203.938C2316.24 203.417 2317.54 205.5 2318.06 210.188C2318.58 214.875 2318.58 218.26 2318.06 220.344L2313.38 259.406C2322.75 245.344 2335.51 232.323 2351.66 220.344C2368.32 207.844 2384.73 201.594 2400.88 201.594C2431.08 201.594 2451.4 209.146 2461.81 224.25C2461.81 242.479 2458.95 255.76 2453.22 264.094C2447.49 272.427 2440.46 276.594 2432.12 276.594C2422.75 276.594 2414.16 272.167 2406.34 263.312C2398.53 254.458 2387.85 250.031 2374.31 250.031C2363.9 250.031 2354 253.677 2344.62 260.969C2335.25 267.74 2327.7 276.594 2321.97 287.531C2316.76 297.948 2314.16 308.885 2314.16 320.344V437.531C2314.16 452.635 2314.68 465.917 2315.72 477.375C2316.76 488.833 2318.32 498.729 2320.41 507.062C2321.45 509.146 2325.09 511.49 2331.34 514.094C2337.59 516.698 2344.36 518.781 2351.66 520.344C2359.47 521.906 2364.94 522.688 2368.06 522.688C2369.62 522.688 2370.67 525.812 2371.19 532.062C2371.71 538.312 2371.45 542.74 2370.41 545.344L2286.03 541.438L2200.88 545.344ZM2605.56 551.594C2589.42 551.594 2574.83 549.771 2561.81 546.125C2548.79 542.479 2532.91 539.354 2514.16 536.75C2512.07 531.021 2509.99 523.208 2507.91 513.312C2505.82 503.417 2504 493 2502.44 482.062C2501.4 471.125 2500.88 462.271 2500.88 455.5C2505.04 452.375 2508.17 450.812 2510.25 450.812C2518.06 450.812 2522.23 452.375 2522.75 455.5C2524.83 465.917 2530.04 476.333 2538.38 486.75C2546.71 497.167 2556.86 506.021 2568.84 513.312C2580.82 520.083 2593.06 523.469 2605.56 523.469C2622.23 523.469 2635.77 519.042 2646.19 510.188C2657.12 500.812 2662.59 487.531 2662.59 470.344C2662.59 452.115 2655.56 437.01 2641.5 425.031C2630.56 416.177 2621.19 409.927 2613.38 406.281C2606.08 402.115 2598.79 398.469 2591.5 395.344C2584.73 391.698 2576.14 386.75 2565.72 380.5C2525.09 357.062 2504.78 329.198 2504.78 296.906C2504.78 278.156 2509.99 261.75 2520.41 247.688C2530.82 233.104 2544.62 221.906 2561.81 214.094C2579.52 205.76 2598.27 201.594 2618.06 201.594C2623.79 201.594 2630.3 202.115 2637.59 203.156C2644.89 203.677 2652.96 204.458 2661.81 205.5C2670.67 207.062 2677.96 208.365 2683.69 209.406C2689.42 210.448 2694.1 211.229 2697.75 211.75C2703.48 235.708 2706.6 262.271 2707.12 291.438C2707.12 294.042 2703.74 295.344 2696.97 295.344C2689.68 295.344 2685.77 293.521 2685.25 289.875C2682.65 275.292 2675.09 261.49 2662.59 248.469C2650.61 235.448 2636.81 228.938 2621.19 228.938C2583.69 228.938 2564.94 244.302 2564.94 275.031C2564.94 282.844 2565.72 289.875 2567.28 296.125C2569.36 301.854 2573.79 307.323 2580.56 312.531C2596.71 325.031 2615.72 337.531 2637.59 350.031C2659.99 362.531 2678.48 374.25 2693.06 385.188C2714.94 401.854 2725.88 421.385 2725.88 443.781C2725.88 464.094 2720.41 482.583 2709.47 499.25C2698.53 515.396 2683.95 528.156 2665.72 537.531C2647.49 546.906 2627.44 551.594 2605.56 551.594Z" fill="#A2A8B5"/>
</svg>
